# xmcd CD database file
#
# Track frame offsets:
#	150
#	24762
#	35966
#	47457
#	62621
#	77198
#	95034
#	113339
#	128403
#	141475
#	161127
#
# Disc length: 2348 seconds
#
# Revision: 0
# Processed by: cddbd v1.5.1PL2 Copyright (c) Steve Scherf et al.
# Submitted via: CDex 1.51
#
DISCID=8b092a0b
DTITLE=Mary-Lou - Americana favorites
DYEAR=2006
DGENRE=Country
TTITLE0=City of New Orleans
TTITLE1=I love You Honey
TTITLE2=Drinking all my troubles away
TTITLE3=The night they drove Old Dixie Down
TTITLE4=Sunny afternoon
TTITLE5=New San Antonio rose
TTITLE6=Hobo's meditation
TTITLE7=Divore me C.O.D.
TTITLE8=Time change everything
TTITLE9=Will the circle be unbroken
TTITLE10=Yearning (Just for you)
EXTD=YEAR: 2006
EXTT0=
EXTT1=
EXTT2=
EXTT3=
EXTT4=
EXTT5=
EXTT6=
EXTT7=
EXTT8=
EXTT9=
EXTT10=
PLAYORDER=
